<?xml version="1.0" standalone="no"?>
<!DOCTYPE svg PUBLIC "-//W3C//DTD SVG 20010904//EN"
 "http://www.w3.org/TR/2001/REC-SVG-20010904/DTD/svg10.dtd">
<svg version="1.0" xmlns="http://www.w3.org/2000/svg"
 width="373.000000pt" height="373.000000pt" viewBox="0 0 373.000000 373.000000"
 preserveAspectRatio="xMidYMid meet">
<metadata>
Created by potrace 1.14, written by Peter Selinger 2001-2017
</metadata>
<g transform="translate(0.000000,373.000000) scale(0.100000,-0.100000)"
fill="#000000" stroke="none">
<path d="M745 3450 c-273 -69 -463 -325 -440 -593 11 -128 41 -211 110 -302
l37 -48 -16 -56 c-9 -33 -16 -95 -16 -145 l0 -87 -63 -63 c-107 -107 -167
-251 -167 -401 0 -129 35 -238 106 -336 l33 -45 -20 -30 c-140 -206 -158 -486
-44 -702 85 -162 223 -280 400 -340 l80 -27 1378 -3 1377 -2 0 685 0 685 -115
0 -115 0 0 115 0 115 115 0 115 0 0 455 0 455 -60 0 -60 0 0 340 0 340 -1302
-1 c-717 -1 -1316 -4 -1333 -9z m2295 -555 l0 -225 -822 0 c-777 0 -825 1
-863 19 -153 70 -181 266 -53 375 22 19 56 39 76 44 23 6 357 10 850 11 l812
1 0 -225z m222 -575 l3 -110 -930 2 c-1026 3 -959 -1 -991 67 -21 43 -6 100
33 130 25 21 33 21 954 21 l928 0 3 -110z m-342 -565 l0 -225 -877 0 c-990 0
-923 -5 -994 79 -61 70 -74 152 -38 231 33 72 80 113 154 131 17 4 418 7 893
8 l862 1 0 -225z m340 -805 l0 -340 -782 0 c-431 0 -811 4 -846 9 -156 23
-267 132 -292 286 -25 156 72 318 225 373 20 7 294 11 863 11 l832 1 0 -340z"/>
</g>
</svg>
